<svg version="1.0" xmlns="http://www.w3.org/2000/svg" width="68px" height="68px" viewBox="0 0 680.000000 680.000000" preserveAspectRatio="xMidYMid meet" transform="rotate(0) scale(.8, 1)">
<g transform="translate(0.000000,680.000000) scale(0.100000,-0.100000)" fill="#ffffff" stroke="none">
<path d="M3735 5654 c-218 -33 -417 -132 -559 -278 -63 -66 -186 -235 -186&#10;-257 0 -5 -9 -28 -19 -52 -11 -23 -25 -60 -31 -82 -7 -22 -19 -58 -26 -81 -58&#10;-170 -35 -565 43 -719 11 -22 24 -51 28 -64 10 -31 62 -119 88 -148 l20 -23&#10;-1466 0 c-1156 0 -1472 -3 -1489 -12 -42 -24 -57 -51 -58 -100 0 -38 9 -62 51&#10;-135 28 -48 60 -104 71 -123 11 -19 24 -39 28 -45 8 -11 35 -57 83 -145 17&#10;-30 38 -66 47 -80 10 -14 27 -41 38 -61 36 -64 322 -531 378 -616 30 -46 54&#10;-85 54 -88 0 -2 57 -91 127 -198 131 -198 139 -210 173 -262 10 -16 24 -35 29&#10;-42 6 -7 11 -16 11 -20 0 -4 9 -19 21 -33 11 -14 82 -117 158 -230 198 -296&#10;234 -343 267 -360 24 -12 150 -16 784 -23 1141 -12 1916 -3 2385 27 582 39&#10;766 59 920 101 72 19 139 39 150 44 128 58 213 103 284 149 92 60 252 212 317&#10;302 61 83 104 152 104 166 0 7 3 14 8 16 8 3 44 84 78 173 12 32 45 146 56&#10;195 16 72 22 375 8 455 -12 73 -14 80 -56 210 -42 132 -113 267 -196 371 -27&#10;34 -738 745 -1358 1359 -444 439 -532 516 -655 578 -217 110 -286 127 -510&#10;132 -93 2 -183 1 -200 -1z m265 -244 c94 -15 256 -68 320 -106 118 -69 197&#10;-140 584 -524 221 -219 493 -488 606 -598 l205 -201 -91 -1 c-84 0 -257 -32&#10;-319 -60 -214 -93 -321 -165 -452 -304 -123 -130 -189 -239 -251 -416 -50&#10;-144 -52 -153 -55 -285 l-2 -127 -84 89 c-168 177 -310 324 -620 643 -463 476&#10;-525 540 -535 558 -5 10 -19 29 -31 44 -31 36 -95 163 -95 186 0 10 -3 22 -7&#10;26 -14 14 -33 91 -45 188 -10 82 -9 111 5 195 23 139 29 167 37 178 4 6 13 28&#10;20 49 18 55 73 146 129 214 158 189 432 291 681 252z m1767 -1681 c81 -18 176&#10;-51 213 -72 19 -11 49 -28 67 -38 45 -25 70 -46 138 -114 149 -149 192 -228&#10;275 -510 17 -57 22 -209 11 -303 -6 -50 -27 -139 -46 -196 -61 -189 -128 -306&#10;-243 -428 -59 -62 -171 -158 -186 -158 -2 0 -41 -22 -86 -50 -45 -27 -92 -52&#10;-104 -55 -11 -4 -30 -10 -41 -15 -86 -39 -253 -77 -395 -90 -47 -4 -128 -13&#10;-180 -18 -52 -6 -187 -17 -300 -23 -113 -7 -218 -13 -235 -14 -243 -20 -2135&#10;-29 -2679 -13 -232 7 -239 8 -255 30 -9 12 -81 119 -161 238 -80 118 -171 252&#10;-203 297 -31 45 -57 84 -57 87 0 3 -65 105 -145 226 -80 121 -145 223 -145&#10;225 0 3 -24 42 -54 88 -85 130 -228 362 -266 431 -19 35 -40 70 -46 77 -7 8&#10;-21 31 -33 52 -55 98 -65 114 -82 139 -11 14 -19 29 -19 33 0 4 -8 19 -19 33&#10;-21 30 -61 100 -61 107 0 3 648 5 1440 5 l1441 0 222 -226 c122 -124 224 -230&#10;227 -235 3 -5 80 -84 170 -176 91 -93 275 -283 410 -423 387 -403 601 -614&#10;661 -653 74 -49 184 -103 239 -117 25 -7 54 -16 65 -20 59 -25 289 -37 352&#10;-19 64 17 93 57 93 124 0 46 -4 58 -29 83 -30 29 -31 29 -173 34 -128 5 -151&#10;8 -226 36 -114 42 -190 92 -283 181 -69 67 -179 221 -179 252 0 5 -9 28 -19&#10;52 -28 63 -31 74 -46 177 -11 81 -11 110 1 190 13 90 37 174 56 195 4 5 8 15&#10;8 22 0 36 109 193 194 278 105 105 132 126 227 178 167 90 352 127 486 96z"/>
</g>
</svg>