<?xml version="1.0" standalone="no"?>
<svg version="1.0" xmlns="http://www.w3.org/2000/svg"
 width="1024.000000pt" height="1024.000000pt" viewBox="0 0 1024.000000 1024.000000"
 preserveAspectRatio="xMidYMid meet">

<g transform="translate(0.000000,1024.000000) scale(0.100000,-0.100000)"
fill="#fff" stroke="none">
<path d="M4071 9829 c-225 -26 -433 -128 -596 -293 -273 -275 -364 -659 -235
-993 57 -149 208 -361 336 -470 57 -49 138 -155 127 -167 -4 -3 -437 -6 -963
-6 -646 0 -975 -4 -1015 -11 -124 -23 -214 -89 -267 -197 l-33 -67 0 -1040 0
-1040 30 -58 c58 -116 176 -193 311 -204 162 -14 379 84 504 228 66 75 196
179 279 222 114 60 160 70 280 65 178 -9 322 -75 453 -210 174 -178 234 -452
151 -689 -90 -261 -319 -439 -598 -465 -169 -16 -338 69 -540 270 -60 60 -136
126 -167 147 -70 45 -180 85 -268 99 -191 29 -360 -71 -419 -248 -21 -62 -21
-69 -19 -1075 l3 -1012 27 -57 c34 -74 112 -152 186 -186 l57 -27 1004 -3
1003 -2 -6 -27 c-11 -40 -47 -87 -119 -153 -166 -152 -312 -371 -361 -540 -84
-288 8 -642 230 -889 120 -134 329 -258 509 -303 128 -32 342 -32 468 0 195
49 356 142 493 284 186 194 277 418 278 683 1 152 -18 235 -85 368 -65 131
-126 213 -266 358 -128 133 -170 189 -158 209 4 6 363 10 984 10 1076 0 1032
-2 1133 62 58 36 99 87 136 165 l27 58 5 988 5 987 80 -81 c310 -313 585 -438
884 -399 230 30 415 117 578 273 343 329 411 828 169 1237 -167 282 -466 468
-796 495 -270 22 -549 -110 -815 -386 l-100 -104 -5 985 c-4 723 -8 994 -17
1018 -36 101 -125 195 -221 234 l-57 23 -997 3 c-668 2 -998 6 -998 13 0 28
43 85 144 189 191 197 290 348 340 520 69 237 17 528 -133 757 -172 260 -437
421 -750 454 -97 10 -107 10 -210 -2z m279 -324 c113 -30 219 -92 305 -179
123 -124 189 -263 201 -431 15 -185 -70 -350 -298 -577 -103 -104 -122 -128
-164 -213 -43 -86 -48 -104 -52 -180 -4 -76 -2 -90 22 -139 32 -66 99 -129
174 -164 l57 -27 1007 -5 c666 -3 1010 -8 1017 -15 7 -7 11 -347 13 -1010 3
-922 5 -1004 21 -1052 25 -74 77 -144 132 -178 43 -27 57 -30 129 -30 126 0
183 33 371 215 159 154 202 188 303 239 95 48 173 65 267 58 172 -12 306 -76
435 -206 99 -100 148 -187 181 -320 29 -117 23 -280 -15 -397 -68 -209 -251
-382 -466 -440 -98 -26 -239 -24 -315 6 -130 50 -263 148 -388 284 -79 86
-177 159 -257 191 -63 24 -155 23 -207 -3 -55 -28 -117 -102 -145 -171 l-23
-56 -3 -1004 c-2 -913 -4 -1007 -19 -1023 -15 -17 -64 -18 -992 -18 -1040 0
-1022 1 -1119 -49 -55 -28 -115 -90 -144 -149 -18 -37 -22 -63 -22 -122 1
-142 65 -261 225 -420 224 -222 308 -404 280 -600 -24 -159 -82 -278 -191
-390 -255 -260 -666 -273 -943 -30 -162 143 -256 401 -216 592 28 131 115 265
275 423 172 170 235 284 238 425 1 63 -3 84 -27 132 -33 67 -90 121 -166 157
l-56 26 -1005 5 c-553 3 -1011 9 -1017 13 -10 6 -13 213 -13 977 l0 969 21 12
c13 6 38 8 61 5 72 -12 140 -56 248 -161 152 -147 257 -222 405 -287 112 -49
180 -62 320 -62 271 0 496 95 691 289 128 128 205 253 257 420 145 464 -79
980 -517 1194 -121 60 -218 87 -352 101 -276 28 -527 -80 -802 -344 -64 -62
-137 -123 -161 -135 -54 -28 -144 -39 -166 -21 -13 11 -15 126 -15 976 0 759
3 965 13 971 6 4 462 10 1012 13 l1000 5 61 28 c122 57 197 166 197 287 -1
135 -62 248 -222 409 -128 128 -188 205 -237 304 -48 95 -68 185 -60 275 28
315 258 565 574 622 63 12 213 4 282 -15z"/>
</g>
</svg>
