<svg version="1.0" xmlns="http://www.w3.org/2000/svg"
 width="900.000000pt" height="900.000000pt" viewBox="0 0 900.000000 900.000000"
 preserveAspectRatio="xMidYMid meet">

<g transform="translate(0.000000,900.000000) scale(0.100000,-0.100000)"
fill="#fff" stroke="none">
<path d="M2880 8690 c0 -5 -9 -10 -19 -10 -11 0 -22 -4 -25 -9 -4 -5 -29 -12
-56 -16 -28 -4 -50 -11 -50 -16 0 -5 -11 -9 -25 -9 -14 0 -25 -4 -25 -9 0 -5
-22 -12 -50 -16 -27 -4 -50 -11 -50 -16 0 -5 -9 -9 -19 -9 -11 0 -22 -4 -25
-9 -4 -5 -29 -12 -56 -16 -28 -4 -50 -11 -50 -16 0 -5 -11 -9 -25 -9 -14 0
-25 -4 -25 -9 0 -5 -22 -12 -50 -16 -27 -4 -50 -11 -50 -16 0 -5 -11 -9 -25
-9 -14 0 -25 -4 -25 -9 0 -5 -22 -12 -50 -16 -27 -4 -50 -11 -50 -16 0 -5 -11
-9 -25 -9 -14 0 -25 -4 -25 -9 0 -5 -22 -12 -50 -16 -27 -4 -50 -11 -50 -16 0
-5 -11 -9 -25 -9 -14 0 -25 -4 -25 -9 0 -5 -22 -12 -50 -16 -27 -4 -50 -11
-50 -16 0 -5 -11 -9 -25 -9 -14 0 -25 -4 -25 -9 0 -5 -22 -12 -50 -16 -27 -4
-50 -11 -50 -16 0 -5 -11 -9 -25 -9 -14 0 -25 -4 -25 -9 0 -5 -22 -12 -50 -16
-27 -4 -50 -11 -50 -16 0 -5 -11 -9 -25 -9 -14 0 -25 -4 -25 -9 0 -5 -22 -12
-50 -16 -27 -4 -50 -11 -50 -16 0 -5 -11 -9 -25 -9 -14 0 -25 -4 -25 -9 0 -5
-22 -12 -50 -16 -27 -4 -50 -11 -50 -16 0 -5 -11 -9 -25 -9 -14 0 -25 -4 -25
-9 0 -5 -23 -12 -50 -16 -27 -4 -50 -11 -50 -16 0 -5 -5 -9 -11 -9 -14 0 -39
-25 -39 -39 0 -6 -4 -11 -10 -11 -7 0 -10 -1105 -10 -3295 0 -1923 4 -3295 9
-3295 5 0 11 -10 15 -23 5 -22 55 -57 82 -57 8 0 14 -4 14 -9 0 -5 10 -13 23
-17 12 -4 38 -17 57 -30 19 -13 43 -24 52 -24 10 0 18 -4 18 -10 0 -5 7 -10
15 -10 8 0 15 -4 15 -10 0 -5 11 -12 25 -16 14 -3 25 -10 25 -15 0 -5 7 -9 15
-9 8 0 15 -4 15 -9 0 -5 14 -11 30 -15 17 -3 40 -15 52 -26 13 -12 33 -23 45
-26 13 -4 23 -10 23 -15 0 -5 9 -9 20 -9 11 0 20 -4 20 -9 0 -5 10 -13 23 -17
12 -4 38 -17 57 -30 19 -13 43 -24 52 -24 10 0 18 -4 18 -10 0 -5 7 -10 15
-10 8 0 15 -4 15 -8 0 -5 18 -16 40 -26 22 -10 40 -21 40 -25 0 -5 14 -11 30
-15 17 -3 40 -15 52 -26 13 -12 33 -23 45 -26 13 -4 23 -10 23 -15 0 -5 9 -9
20 -9 11 0 20 -4 20 -10 0 -5 5 -10 11 -10 7 0 34 -13 61 -30 26 -16 53 -30
59 -30 5 0 20 -9 32 -20 12 -12 32 -23 44 -26 13 -4 23 -10 23 -15 0 -5 7 -9
15 -9 8 0 15 -4 15 -10 0 -5 8 -10 18 -10 9 0 37 -14 62 -30 25 -16 53 -30 63
-30 9 0 17 -4 17 -10 0 -5 7 -10 15 -10 8 0 15 -4 15 -9 0 -5 15 -13 32 -17
18 -3 39 -15 46 -25 6 -9 26 -20 42 -24 17 -4 30 -11 30 -16 0 -5 7 -9 15 -9
8 0 15 -3 15 -7 0 -5 20 -17 45 -28 25 -11 45 -23 45 -26 0 -4 14 -10 30 -14
17 -4 30 -11 30 -16 0 -5 6 -9 14 -9 7 0 19 -7 26 -15 7 -8 21 -15 31 -15 11
0 19 -4 19 -10 0 -5 7 -10 15 -10 8 0 15 -4 15 -10 0 -5 7 -10 15 -10 8 0 15
-5 15 -11 0 -6 15 -24 33 -40 37 -34 33 -34 312 -4 83 9 184 18 225 21 41 3
80 9 85 14 6 4 74 11 153 15 78 4 142 11 142 16 0 5 34 9 75 9 41 0 75 4 75 9
0 4 59 11 132 15 73 4 140 12 149 17 10 5 49 9 88 9 38 0 72 4 75 9 3 5 71 12
151 16 80 4 145 11 145 16 0 5 29 9 65 9 37 0 65 4 65 10 0 6 31 10 73 11 71
1 174 10 312 29 39 5 140 17 225 25 85 8 187 20 225 25 70 10 323 36 445 46
36 3 70 9 75 14 6 4 72 11 148 15 75 4 140 11 143 16 3 5 39 9 80 9 41 0 74 4
74 8 0 5 64 14 143 20 78 7 176 17 217 22 41 6 138 17 215 25 77 9 176 20 220
25 44 5 148 16 230 24 179 18 225 25 225 36 0 5 10 10 23 12 14 2 23 11 25 25
2 13 8 23 13 23 5 0 9 1438 9 3735 0 2155 -4 3735 -9 3735 -5 0 -11 9 -14 20
-7 27 -46 40 -120 40 -44 0 -58 3 -47 10 10 7 -25 10 -107 10 -68 0 -123 4
-123 8 0 7 -237 23 -563 39 -53 2 -95 8 -92 13 3 4 -101 11 -230 15 -129 4
-232 11 -230 16 3 4 -39 10 -92 13 -383 19 -600 32 -609 38 -6 4 -50 8 -98 9
-47 1 -86 5 -86 9 0 7 -356 25 -425 21 -22 -1 -26 1 -15 8 9 7 -29 11 -115 15
-232 8 -499 27 -530 36 -16 5 -78 10 -137 12 -59 1 -104 6 -102 10 3 4 -317 8
-710 8 -471 0 -716 -3 -716 -10z m465 -161 c152 -9 529 -37 665 -49 52 -5 201
-16 330 -25 129 -9 280 -20 335 -25 55 -5 204 -15 330 -23 127 -7 235 -16 241
-20 6 -3 56 -7 112 -8 56 -1 102 -5 102 -9 0 -4 105 -11 233 -15 127 -4 237
-11 242 -15 11 -9 66 -13 370 -29 110 -6 222 -15 248 -21 27 -5 95 -10 152
-10 57 0 114 -4 127 -10 13 -5 113 -14 223 -20 110 -5 243 -14 295 -20 96 -11
335 -27 423 -29 l47 -1 0 -3585 0 -3585 -25 0 c-14 0 -25 -4 -25 -9 0 -4 -35
-9 -77 -10 -42 -1 -82 -5 -87 -9 -6 -4 -74 -13 -151 -20 -77 -7 -174 -17 -215
-22 -41 -6 -136 -15 -210 -21 -74 -5 -149 -14 -166 -19 -17 -6 -56 -10 -87
-10 -31 0 -57 -4 -57 -9 0 -5 -67 -12 -150 -16 -82 -4 -153 -11 -156 -16 -3
-5 -39 -9 -80 -9 -41 0 -74 -4 -74 -9 0 -5 -64 -12 -142 -16 -79 -4 -147 -11
-153 -15 -11 -9 -51 -13 -285 -30 -80 -6 -153 -16 -162 -21 -10 -5 -47 -9 -82
-9 -36 0 -67 -4 -70 -9 -4 -5 -69 -12 -146 -16 -77 -4 -140 -11 -140 -16 0 -5
-34 -9 -75 -9 -41 0 -75 -4 -75 -8 0 -5 -66 -14 -147 -20 -82 -7 -177 -15
-213 -18 -36 -3 -72 -8 -80 -12 -8 -3 -78 -12 -155 -19 -77 -8 -174 -18 -215
-23 -41 -5 -141 -15 -222 -21 -82 -7 -148 -16 -148 -21 0 -4 -31 -8 -69 -8
-39 0 -72 -4 -75 -9 -3 -5 -71 -12 -151 -16 -80 -4 -148 -11 -151 -16 -3 -5
-32 -9 -65 -9 l-59 0 0 4021 c0 3826 1 4021 18 4013 9 -4 76 -11 147 -15z
m-415 -3989 c0 -2443 -4 -3920 -9 -3920 -6 0 -13 5 -16 10 -3 6 -15 10 -26 10
-10 0 -19 5 -19 10 0 6 -7 10 -15 10 -8 0 -15 4 -15 9 0 5 -10 11 -23 15 -12
3 -32 14 -43 24 -11 11 -35 23 -52 27 -18 3 -32 10 -32 14 0 4 -26 21 -57 37
-32 15 -59 32 -61 36 -2 4 -8 8 -14 8 -6 0 -33 14 -60 30 -26 17 -55 30 -63
30 -8 0 -15 5 -15 10 0 6 -7 10 -15 10 -8 0 -15 5 -15 10 0 6 -8 10 -19 10
-10 0 -24 7 -31 15 -7 8 -19 15 -26 15 -8 0 -14 4 -14 9 0 5 -13 12 -30 16
-16 4 -30 11 -30 16 0 5 -9 9 -20 9 -11 0 -20 4 -20 8 0 5 -18 16 -40 26 -22
10 -40 21 -40 26 0 4 -12 11 -26 14 -15 4 -43 18 -63 32 -19 13 -41 24 -48 24
-7 0 -13 5 -13 10 0 6 -7 10 -15 10 -8 0 -15 5 -15 10 0 6 -8 10 -19 10 -10 0
-24 7 -31 15 -7 8 -19 15 -26 15 -8 0 -14 4 -14 9 0 5 -13 12 -30 16 -16 4
-30 11 -30 16 0 5 -6 9 -14 9 -7 0 -19 7 -26 15 -7 8 -21 15 -31 15 -11 0 -19
5 -19 10 0 6 -7 10 -15 10 -8 0 -15 5 -15 10 0 6 -5 10 -11 10 -18 0 -139 62
-139 71 0 4 -15 11 -32 15 -18 3 -39 15 -46 25 -6 9 -26 20 -42 24 -17 4 -30
11 -30 16 0 5 -7 9 -15 9 -8 0 -15 5 -15 10 0 6 -8 10 -19 10 -10 0 -24 7 -31
15 -7 8 -19 15 -26 15 -12 0 -14 486 -14 3180 l0 3181 30 6 c17 3 33 10 36 14
3 5 16 9 30 9 13 0 24 4 24 9 0 5 23 12 50 16 28 4 50 11 50 16 0 5 9 9 19 9
11 0 22 4 25 9 4 5 29 12 56 16 28 4 50 11 50 16 0 5 11 9 25 9 14 0 25 4 25
9 0 5 23 12 50 16 28 4 50 11 50 16 0 5 11 9 25 9 14 0 25 4 25 9 0 5 23 12
50 16 28 4 50 11 50 16 0 5 11 9 25 9 14 0 25 4 25 9 0 5 23 12 50 16 28 4 50
11 50 16 0 5 9 9 19 9 11 0 22 4 25 9 4 5 29 12 56 16 28 4 50 11 50 16 0 5 9
9 19 9 11 0 22 4 25 9 3 5 26 12 51 15 24 4 47 11 50 17 4 5 17 9 31 9 13 0
24 4 24 9 0 5 23 12 50 16 28 4 50 11 50 16 0 5 11 9 25 9 14 0 25 4 25 9 0 5
23 12 50 16 28 4 50 11 50 16 0 5 11 9 25 9 14 0 25 4 25 9 0 5 23 12 50 16
28 4 50 11 50 16 0 5 11 9 25 9 14 0 25 4 25 9 0 5 12 12 28 14 15 2 30 5 35
6 4 0 7 -1763 7 -3919z"/>
<path d="M3865 7489 c-4 -5 -18 -14 -31 -19 -14 -6 -27 -18 -31 -27 -4 -10
-16 -26 -27 -36 l-21 -19 0 -2442 c0 -2316 1 -2443 18 -2460 9 -10 22 -26 27
-36 5 -10 29 -28 53 -40 48 -24 71 -24 537 5 140 9 302 18 360 21 58 2 112 8
120 11 13 6 215 20 565 39 55 3 104 9 110 13 5 4 53 9 105 10 52 2 163 7 245
13 83 5 195 11 250 14 55 2 109 9 120 13 18 9 265 24 570 37 66 2 129 8 140
13 11 5 70 12 132 14 96 4 114 7 134 26 13 11 26 21 29 21 18 0 51 41 56 69 4
17 10 31 15 31 5 0 9 941 9 2181 l0 2181 -26 49 c-15 27 -34 51 -44 54 -9 3
-26 15 -39 26 -19 18 -39 21 -139 26 -64 3 -123 11 -131 17 -11 8 -13 8 -7 -1
4 -7 2 -13 -3 -13 -6 0 -11 4 -11 9 0 6 -46 12 -102 14 -401 19 -567 29 -594
38 -17 5 -82 9 -145 9 -69 0 -109 4 -100 9 8 5 -74 12 -208 16 -121 4 -221 11
-221 16 0 5 -60 9 -133 9 -74 0 -137 3 -141 8 -7 6 -187 19 -548 38 -60 3
-108 9 -108 14 0 7 -457 27 -489 21 -7 -1 -10 2 -6 8 4 8 -39 11 -139 11 -91
0 -147 -4 -151 -11z m772 -35 c-3 -3 -12 -4 -19 -1 -8 3 -5 6 6 6 11 1 17 -2
13 -5z m-342 -200 c55 -3 104 -10 109 -15 6 -5 25 -9 43 -9 l33 0 0 -151 c0
-116 3 -154 14 -165 8 -7 16 -19 18 -26 3 -9 38 -16 104 -20 54 -5 136 -11
182 -14 61 -4 82 -10 82 -20 0 -8 -4 -14 -10 -14 -6 0 -10 -28 -10 -65 0 -37
4 -65 10 -65 6 0 10 -16 10 -35 0 -19 4 -35 9 -35 5 0 12 -20 15 -45 4 -25 11
-45 17 -45 5 0 9 -5 9 -11 0 -7 11 -22 25 -35 14 -13 25 -30 25 -38 0 -8 9
-18 21 -21 33 -11 99 -83 106 -115 3 -16 14 -32 24 -35 11 -4 19 -13 19 -22 0
-22 156 -173 179 -173 11 0 22 9 26 19 3 11 15 23 25 26 10 3 22 15 25 25 3
10 15 22 25 25 10 3 22 15 25 26 4 10 11 19 16 19 5 0 9 7 9 15 0 8 4 15 9 15
5 0 13 10 17 23 4 12 15 29 24 37 9 8 20 25 24 37 4 12 16 25 26 28 10 3 22
14 25 24 3 11 15 21 26 24 11 3 23 15 26 26 3 11 14 23 24 26 10 4 19 15 19
26 0 11 7 22 15 25 8 4 15 17 15 29 0 13 5 25 11 27 6 2 13 34 16 71 3 37 10
67 16 67 6 0 7 19 4 50 l-6 50 29 0 c17 0 30 -4 30 -10 0 -6 68 -10 185 -10
117 0 185 4 185 10 0 6 7 10 15 10 8 0 15 7 15 15 0 8 5 15 10 15 6 0 10 52
10 135 0 104 3 135 13 135 7 0 17 -4 23 -9 10 -10 63 -14 424 -30 124 -6 247
-15 273 -21 27 -5 68 -10 93 -10 l44 0 0 -2105 0 -2105 -60 0 c-33 0 -60 -4
-60 -10 0 -6 -46 -10 -117 -11 -112 -1 -227 -8 -498 -29 -66 -5 -226 -15 -355
-23 -129 -7 -242 -16 -250 -19 -17 -8 -81 -12 -442 -30 -135 -7 -250 -16 -254
-20 -4 -5 -55 -8 -114 -8 -58 0 -110 -4 -116 -9 -5 -5 -107 -13 -227 -17 -124
-4 -213 -11 -205 -15 9 -6 6 -9 -10 -9 -13 0 -20 4 -17 10 3 6 1 10 -4 10 -6
0 -11 -4 -11 -10 0 -6 -27 -10 -60 -10 l-60 0 0 515 0 515 53 1 c44 1 48 2 22
9 -30 8 -30 8 8 9 23 1 36 -3 32 -9 -7 -12 8 -14 19 -2 7 6 521 23 1154 38
126 3 200 8 197 14 -4 6 14 10 42 10 35 0 44 -3 33 -10 -8 -5 -10 -10 -4 -10
5 0 14 4 20 9 5 5 216 12 469 16 253 4 471 12 484 17 17 6 27 5 33 -4 4 -7 8
-217 8 -465 l0 -453 45 0 45 0 0 515 0 515 -34 0 c-19 0 -38 -4 -41 -10 -8
-14 -395 -14 -395 0 0 6 9 10 19 10 11 0 22 4 26 9 3 5 19 12 35 16 17 4 30
11 30 16 0 5 9 9 20 9 11 0 20 4 20 10 0 5 11 12 25 16 14 3 25 10 25 15 0 5
16 17 35 26 19 9 37 25 40 34 3 10 15 21 25 24 10 3 22 15 25 25 3 10 15 22
25 25 10 3 22 15 25 26 4 10 11 19 16 19 5 0 9 7 9 15 0 8 4 15 10 15 5 0 12
11 16 25 3 14 10 25 15 25 5 0 9 5 9 10 0 18 -18 11 -25 -9 -3 -11 -15 -23
-25 -26 -10 -3 -22 -15 -25 -26 -4 -10 -15 -19 -26 -19 -11 0 -22 -7 -25 -15
-4 -8 -14 -15 -24 -15 -10 0 -20 -7 -24 -15 -3 -8 -15 -15 -26 -15 -11 0 -20
-4 -20 -10 0 -5 -7 -10 -15 -10 -8 0 -15 -4 -15 -9 0 -5 -18 -11 -40 -15 -23
-3 -50 -11 -60 -16 -11 -6 -28 -14 -39 -19 -10 -5 -50 -13 -90 -17 -39 -3 -71
-10 -71 -15 0 -8 -149 -18 -285 -20 -96 -2 -235 12 -235 22 0 5 -17 9 -39 9
-21 0 -59 3 -85 6 l-46 7 0 583 0 584 120 0 120 0 0 -485 0 -485 194 0 c119 0
197 4 201 10 3 6 17 10 31 10 13 0 24 4 24 9 0 5 23 11 50 15 28 4 50 11 50
16 0 6 7 10 15 10 8 0 15 4 15 9 0 5 11 12 25 15 14 4 25 11 25 16 0 6 7 10
15 10 8 0 15 4 15 9 0 5 9 12 19 16 11 3 23 15 26 25 3 10 15 22 26 25 10 4
19 14 19 24 0 10 11 26 24 37 15 11 32 41 43 76 10 32 21 58 26 58 4 0 7 13 7
29 0 16 6 31 13 34 9 3 12 55 12 217 0 162 -3 214 -12 218 -7 2 -13 15 -13 28
0 13 -4 24 -9 24 -5 0 -12 14 -16 30 -4 17 -11 30 -16 30 -5 0 -9 9 -9 19 0
11 -9 23 -20 26 -11 3 -20 13 -20 22 0 19 -50 68 -78 77 -12 4 -24 15 -27 25
-3 12 -19 21 -42 26 -35 6 -73 23 -83 37 -3 4 -44 10 -90 14 -47 4 -88 12 -92
18 -5 8 -8 7 -8 -1 0 -7 -10 -13 -22 -12 -22 0 -22 1 -3 9 12 5 -98 9 -267 9
l-288 1 0 115 0 115 325 0 c210 0 325 -4 325 -10 0 -5 23 -10 50 -10 28 0 50
5 50 10 0 6 -11 10 -24 10 -13 0 -26 4 -28 10 -1 5 -47 12 -101 16 -54 4 -100
11 -103 15 -3 5 -183 9 -400 9 l-394 0 0 -74 c0 -65 2 -75 19 -81 11 -3 23
-15 26 -25 3 -10 15 -22 25 -25 11 -4 23 -17 26 -31 3 -13 10 -24 15 -24 5 0
9 -9 9 -19 0 -11 5 -21 12 -23 7 -3 14 -35 17 -79 l6 -74 250 -7 c273 -7 385
-15 385 -28 0 -4 23 -10 50 -14 28 -4 50 -11 50 -16 0 -6 9 -10 20 -10 11 0
28 -8 38 -17 10 -10 30 -27 45 -38 15 -11 27 -25 27 -32 0 -7 3 -13 8 -13 4 0
16 -17 27 -37 11 -21 23 -41 28 -44 4 -3 11 -31 14 -62 3 -31 10 -54 14 -51 5
3 9 -54 9 -125 0 -72 -4 -131 -9 -131 -4 0 -11 -27 -15 -60 -4 -33 -11 -60
-16 -60 -6 0 -10 -11 -10 -25 0 -14 -4 -25 -9 -25 -5 0 -12 -11 -15 -25 -4
-14 -11 -25 -16 -25 -6 0 -10 -5 -10 -10 0 -17 -86 -100 -104 -100 -9 0 -16
-4 -16 -10 0 -5 -7 -10 -15 -10 -8 0 -15 -4 -15 -10 0 -5 -18 -13 -40 -16 -22
-4 -40 -10 -40 -14 0 -11 -57 -22 -125 -24 l-60 -1 2 150 c5 488 5 687 -2 739
-6 45 -4 60 6 67 8 5 -84 9 -222 9 -254 0 -249 1 -249 -51 0 -10 -3 -19 -7
-19 -5 0 -17 -18 -27 -40 -11 -22 -23 -40 -28 -40 -4 0 -8 -5 -8 -11 0 -12
-25 -39 -36 -39 -4 0 -17 -11 -30 -25 -13 -14 -30 -25 -39 -25 -8 0 -15 -4
-15 -9 0 -5 -13 -12 -30 -16 -16 -4 -30 -11 -30 -16 0 -5 -9 -9 -20 -9 -11 0
-20 -4 -20 -9 0 -12 26 -21 61 -21 16 0 29 -5 29 -10 0 -10 9 -5 45 28 13 12
15 8 15 -27 0 -34 3 -41 19 -41 11 0 23 -9 26 -20 3 -11 17 -23 31 -26 13 -3
24 -12 24 -18 0 -7 10 -22 23 -34 31 -29 47 -50 47 -60 0 -6 7 -23 15 -38 8
-16 15 -39 15 -51 0 -13 5 -23 10 -23 13 0 13 -177 1 -185 -6 -3 -13 -26 -17
-50 -3 -25 -10 -45 -15 -45 -5 0 -9 -9 -9 -20 0 -11 -4 -20 -10 -20 -5 0 -12
-11 -16 -25 -3 -13 -14 -27 -24 -30 -11 -3 -22 -15 -25 -25 -3 -10 -15 -22
-25 -25 -10 -3 -22 -15 -25 -25 -3 -10 -16 -22 -28 -26 -12 -4 -29 -15 -37
-24 -8 -9 -32 -20 -52 -24 -21 -4 -38 -11 -38 -16 0 -6 -8 -10 -18 -10 -10 0
-22 -4 -28 -10 -5 -5 -52 -13 -102 -16 -51 -4 -95 -11 -98 -16 -3 -4 -50 -8
-105 -8 -55 0 -98 4 -95 9 3 4 -28 11 -68 14 -70 6 -86 11 -163 43 -17 8 -35
14 -40 14 -6 0 -24 7 -41 16 -25 12 -32 22 -32 45 0 16 5 29 10 29 6 0 10 11
10 24 0 14 4 27 9 30 5 4 12 29 16 56 l7 51 42 -4 c22 -2 33 -2 24 0 -10 2
-18 9 -18 14 0 5 -18 9 -40 9 -22 0 -40 4 -40 10 0 5 -18 13 -40 16 -22 4 -40
10 -40 15 0 5 -6 9 -14 9 -7 0 -19 7 -26 15 -7 8 -21 15 -31 15 -10 0 -21 9
-24 20 -14 43 -40 15 -50 -52 -4 -27 -11 -48 -16 -48 -5 0 -9 -14 -9 -31 0
-16 -4 -28 -9 -25 -5 3 -12 -21 -15 -54 -4 -33 -11 -60 -16 -60 -6 0 -10 -11
-10 -25 0 -14 -4 -25 -9 -25 -5 0 -12 -24 -15 -52 -4 -29 -12 -56 -18 -59 -14
-9 22 -49 44 -49 10 0 18 -4 18 -10 0 -11 96 -60 117 -60 7 0 13 -4 13 -10 0
-5 18 -13 40 -16 22 -4 43 -11 46 -15 3 -5 23 -9 44 -9 21 0 42 -4 45 -10 3
-5 26 -10 51 -10 40 0 44 -2 30 -15 -16 -17 -33 -19 -38 -6 -2 5 -24 5 -53 1
-27 -5 -114 -9 -193 -9 -79 -1 -151 -5 -160 -10 -9 -5 -50 -10 -89 -13 l-73
-4 -2 66 -1 65 -7 -65 c-4 -36 -7 725 -8 1690 -1 1250 1 1751 9 1740 9 -12 10
-10 6 8 l-6 24 112 -6 c62 -4 157 -9 212 -12z m1608 -441 c-7 -2 -19 -2 -25 0
-7 3 -2 5 12 5 14 0 19 -2 13 -5z m-376 -1495 c-3 -8 -6 -5 -6 6 -1 11 2 17 5
13 3 -3 4 -12 1 -19z m410 -1104 c-3 -3 -12 -4 -19 -1 -8 3 -5 6 6 6 11 1 17
-2 13 -5z m350 0 c-3 -3 -12 -4 -19 -1 -8 3 -5 6 6 6 11 1 17 -2 13 -5z m-915
-381 c6 -7 28 -13 50 -13 24 0 37 -4 33 -10 -4 -6 -95 -10 -241 -10 -149 0
-234 4 -234 10 0 6 16 10 35 10 19 0 35 5 35 10 0 6 10 10 22 10 23 0 150 59
156 73 2 4 8 7 13 7 11 0 32 16 57 43 9 11 26 22 37 27 19 7 20 3 23 -68 2
-42 8 -82 14 -89z m-325 141 c-3 -3 -12 -4 -19 -1 -8 3 -5 6 6 6 11 1 17 -2
13 -5z m1701 -211 c-10 -2 -28 -2 -40 0 -13 2 -5 4 17 4 22 1 32 -1 23 -4z
m-2588 -618 l0 -525 -90 0 -90 0 0 515 0 515 75 0 c43 0 75 4 75 10 0 6 7 10
15 10 13 0 15 -65 15 -525z m1663 -402 c-7 -2 -19 -2 -25 0 -7 3 -2 5 12 5 14
0 19 -2 13 -5z m-696 -49 c-3 -3 -12 -4 -19 -1 -8 3 -5 6 6 6 11 1 17 -2 13
-5z m-234 -21 c-7 -2 -19 -2 -25 0 -7 3 -2 5 12 5 14 0 19 -2 13 -5z m2070
-70 c-7 -2 -19 -2 -25 0 -7 3 -2 5 12 5 14 0 19 -2 13 -5z m-2106 -149 c-3 -3
-12 -4 -19 -1 -8 3 -5 6 6 6 11 1 17 -2 13 -5z"/>
<path d="M4775 5760 c-3 -5 -42 -10 -86 -10 -43 0 -79 -4 -79 -9 0 -4 -30 -11
-66 -15 -58 -6 -99 -19 -114 -37 -3 -3 -22 -9 -42 -13 -21 -4 -38 -11 -38 -16
0 -6 -9 -10 -20 -10 -11 0 -20 -4 -20 -10 0 -5 -6 -10 -14 -10 -8 0 -21 -6
-28 -14 -8 -7 -23 -16 -35 -20 -12 -4 -24 -14 -27 -23 -9 -22 4 -103 15 -103
5 0 9 -11 9 -25 0 -14 4 -25 10 -25 5 0 12 -27 16 -60 4 -33 11 -60 15 -60 5
0 9 -11 9 -25 0 -14 4 -25 9 -25 5 0 12 -22 16 -50 4 -27 11 -50 16 -50 5 0 9
-11 9 -25 0 -14 5 -25 10 -25 6 0 10 4 10 8 0 5 16 17 35 28 19 10 35 22 35
26 0 5 7 8 15 8 8 0 15 5 15 10 0 6 6 10 14 10 8 0 21 6 28 13 25 22 57 37 98
43 22 4 43 11 46 15 3 5 49 9 104 9 92 0 100 -2 129 -27 33 -30 43 -83 19
-107 -28 -27 -64 -46 -85 -46 -13 0 -23 -4 -23 -10 0 -6 -65 -10 -175 -10
l-175 0 0 -233 0 -234 187 -6 c119 -4 189 -10 191 -16 2 -6 15 -11 28 -11 13
0 24 -4 24 -9 0 -5 10 -13 22 -17 26 -8 48 -28 48 -43 0 -6 5 -11 10 -11 6 0
10 -27 10 -60 0 -33 -4 -60 -10 -60 -5 0 -10 -7 -10 -15 0 -8 -4 -15 -9 -15
-5 0 -12 -9 -16 -20 -5 -15 -19 -21 -56 -26 -27 -4 -49 -10 -49 -15 0 -5 -27
-9 -60 -9 -33 0 -60 -4 -60 -9 0 -10 59 -21 121 -21 25 0 50 -5 56 -11 23 -23
227 10 262 42 11 10 25 19 30 19 15 0 61 49 61 65 0 8 5 15 10 15 6 0 10 7 10
15 0 8 5 15 10 15 6 0 10 38 10 95 0 57 -4 95 -10 95 -5 0 -10 7 -10 15 0 8
-4 15 -10 15 -5 0 -10 7 -10 15 0 18 -69 85 -87 85 -7 0 -13 4 -13 10 0 5 -18
13 -40 16 -22 4 -40 10 -40 15 0 5 -25 9 -55 9 -30 0 -55 5 -55 10 0 6 -38 10
-95 10 -108 0 -96 -13 -96 105 0 30 0 71 0 90 l1 35 129 0 c72 0 132 4 135 9
3 4 24 11 46 15 22 3 40 10 40 15 0 4 16 16 35 27 19 10 38 27 41 36 3 10 10
18 15 18 5 0 9 9 9 19 0 11 5 23 10 26 6 3 10 39 10 80 0 65 -2 74 -20 80 -11
3 -20 15 -20 26 0 12 -10 23 -25 29 -14 5 -28 16 -31 24 -3 9 -26 18 -52 22
-26 3 -53 11 -59 16 -7 6 -32 8 -55 5 -163 -21 -203 -28 -208 -36 -3 -5 -30
-17 -60 -27 -30 -11 -61 -26 -67 -34 -11 -13 -14 -12 -19 8 -3 12 -10 22 -14
22 -5 0 -11 22 -15 50 -4 27 -11 52 -16 56 -5 3 -9 16 -9 30 0 14 -4 22 -10
19 -5 -3 -10 3 -10 14 0 14 9 23 25 27 14 3 25 10 25 14 0 4 16 11 35 14 19 4
35 11 35 16 0 6 9 10 19 10 11 0 22 4 26 10 3 5 33 12 66 16 32 4 62 11 65 15
3 5 36 9 74 9 38 0 72 5 75 10 3 6 24 10 45 10 21 0 42 -4 45 -10 8 -13 55
-13 55 -1 0 6 -20 13 -45 17 -25 3 -48 10 -51 15 -3 5 -36 9 -74 9 -38 0 -72
5 -75 10 -3 6 -21 10 -40 10 -19 0 -37 -4 -40 -10z"/>
<path d="M5897 1800 c-9 -11 -17 -27 -17 -36 0 -37 61 -61 74 -28 9 24 7 74
-3 74 -5 0 -15 2 -23 5 -7 3 -21 -4 -31 -15z"/>
<path d="M6438 1813 c-26 -4 -28 -8 -28 -49 0 -40 -2 -44 -25 -44 -21 0 -25
-5 -25 -30 0 -25 4 -30 25 -30 l25 0 0 -100 c0 -138 19 -170 99 -170 l51 0 0
34 c0 30 -3 35 -27 38 l-28 3 -3 97 -3 97 28 3 c22 2 29 9 31 31 3 26 1 27
-37 27 l-41 0 0 50 c0 28 -3 49 -7 49 -5 -1 -20 -4 -35 -6z"/>
<path d="M7070 1780 c0 -5 -9 -10 -20 -10 -13 0 -22 -9 -26 -25 -3 -14 -10
-25 -15 -25 -5 0 -9 11 -9 25 0 22 -4 25 -35 25 l-35 0 1 -152 c1 -93 4 -141
9 -123 8 30 8 30 9 -7 0 -21 -4 -38 -10 -38 -6 0 -4 -7 5 -15 8 -8 28 -15 44
-15 l30 0 4 119 c3 119 3 120 33 145 17 14 36 26 44 26 8 0 11 6 7 16 -3 9 -6
27 -6 40 0 15 -6 24 -15 24 -8 0 -15 -4 -15 -10z"/>
<path d="M5368 1763 l-38 -4 1 -187 c0 -120 4 -180 9 -167 7 15 9 8 9 -30 -1
-86 -2 -85 31 -85 l30 0 0 90 0 90 45 0 c25 0 45 5 45 10 0 6 9 10 20 10 10 0
34 14 52 32 32 31 33 36 33 108 0 70 -2 78 -29 105 -25 25 -36 28 -100 30 -39
2 -88 1 -108 -2z m136 -77 c19 -17 26 -34 26 -60 0 -20 -4 -36 -10 -36 -5 0
-10 -6 -10 -12 0 -16 -46 -38 -77 -38 -22 0 -23 3 -23 73 0 43 5 78 12 85 19
19 55 14 82 -12z"/>
<path d="M4760 1750 c0 -5 -13 -10 -30 -10 l-30 0 0 -250 0 -250 84 0 c47 0
88 5 91 10 3 6 17 10 31 10 13 0 24 4 24 10 0 5 16 12 35 16 19 3 35 10 35 14
0 4 14 21 30 38 17 18 30 40 30 51 0 11 5 21 10 23 14 4 16 198 3 207 -6 3
-13 19 -17 35 -8 32 -40 66 -63 66 -7 0 -13 5 -13 10 0 6 -7 10 -15 10 -8 0
-15 5 -15 10 0 6 -38 10 -95 10 -57 0 -95 -4 -95 -10z m96 -69 c-3 -5 16 -11
42 -15 39 -5 50 -11 65 -37 9 -17 17 -37 17 -45 0 -8 5 -14 10 -14 6 0 10 -24
10 -54 0 -30 -4 -58 -10 -61 -5 -3 -10 -15 -10 -26 0 -10 -4 -19 -9 -19 -5 0
-11 -10 -13 -22 -2 -13 -11 -24 -23 -27 -11 -2 -23 -8 -26 -14 -4 -5 -30 -12
-58 -15 l-51 -5 0 41 c0 23 -4 44 -10 47 -6 4 -10 58 -10 131 l0 124 28 0 c21
0 24 2 12 10 -12 8 -9 10 13 10 16 0 26 -4 23 -9z"/>
<path d="M6720 1750 c0 -5 -11 -10 -25 -10 -27 0 -65 -31 -65 -54 0 -8 -6 -16
-12 -19 -9 -2 -13 -31 -13 -97 0 -66 4 -95 13 -98 6 -2 12 -9 12 -16 0 -36
116 -58 209 -40 29 6 32 10 29 38 -2 23 -8 32 -25 34 -13 2 -23 -1 -23 -7 0
-6 -20 -11 -45 -11 -36 0 -52 6 -72 26 -43 43 -23 58 83 64 l89 5 -3 58 c-2
54 -6 62 -42 98 -31 31 -47 39 -75 39 -19 0 -35 -4 -35 -10z m60 -75 c0 -8 5
-15 10 -15 6 0 10 -9 10 -20 0 -15 -7 -20 -29 -20 -16 0 -43 -3 -60 -6 -28 -6
-31 -4 -31 20 0 14 5 26 10 26 6 0 10 7 10 15 0 11 11 15 40 15 29 0 40 -4 40
-15z"/>
<path d="M4468 1713 c-21 -2 -38 -8 -38 -14 0 -5 -5 -9 -11 -9 -17 0 -39 -27
-39 -49 0 -27 34 -36 72 -17 17 9 40 16 51 16 29 0 59 -39 52 -68 -9 -36 -27
-50 -78 -57 -43 -7 -47 -10 -46 -34 0 -23 1 -24 9 -6 8 19 9 19 9 -2 1 -13 -5
-24 -11 -25 -7 -1 14 -4 47 -7 50 -5 62 -10 70 -28 5 -13 13 -23 17 -23 5 0 8
-11 8 -25 0 -14 -4 -25 -10 -25 -5 0 -10 -7 -10 -15 0 -8 -7 -15 -15 -15 -8 0
-15 -4 -15 -10 0 -5 -22 -10 -50 -10 -27 0 -50 5 -50 10 0 6 -5 10 -11 10 -19
0 -39 -28 -39 -54 0 -21 5 -26 25 -26 14 0 25 -4 25 -10 0 -5 20 -10 44 -10
25 0 48 5 51 10 3 6 17 10 30 10 13 0 30 7 39 15 8 8 18 15 23 15 17 0 43 59
43 98 0 73 -10 98 -43 113 -40 18 -45 35 -12 43 16 4 25 13 25 26 0 11 5 20
10 20 21 0 10 74 -14 103 -14 16 -26 32 -28 37 -4 10 -84 18 -130 13z"/>
<path d="M6160 1701 c0 -12 -29 -41 -41 -41 -5 0 -9 7 -9 15 0 10 -10 15 -30
15 l-30 0 0 -165 0 -165 40 0 40 0 0 115 c0 70 4 115 10 115 6 0 10 7 10 15 0
8 7 15 15 15 8 0 15 5 15 10 0 16 18 12 45 -12 24 -21 25 -26 25 -135 l0 -113
40 0 40 0 0 114 c0 63 -4 117 -9 120 -4 3 -11 24 -15 46 -5 31 -11 40 -26 40
-11 0 -20 5 -20 10 0 6 -22 10 -50 10 -27 0 -50 -4 -50 -9z"/>
<path d="M5952 1683 c-1 -8 -17 -13 -37 -13 -32 0 -35 -2 -35 -30 0 -16 5 -30
10 -30 6 0 10 -52 10 -135 l0 -135 41 0 41 0 -6 78 c-12 157 -22 277 -24 265z"/>
<path d="M5766 1654 c-9 -8 -16 -20 -16 -25 0 -5 -4 -9 -10 -9 -5 0 -10 9 -10
20 0 16 -7 20 -35 20 l-35 0 0 -69 c0 -39 5 -73 10 -76 6 -3 10 -46 10 -96 l0
-89 38 0 37 0 0 113 c0 125 7 143 61 149 26 3 29 7 32 41 3 36 3 37 -32 37
-19 0 -42 -7 -50 -16z"/>
<path d="M2410 7460 c0 -5 -18 -10 -40 -10 -22 0 -40 -4 -40 -9 0 -4 -37 -11
-81 -15 -45 -4 -90 -11 -100 -16 -10 -6 -31 -10 -48 -10 -16 0 -32 -4 -35 -9
-4 -5 -44 -12 -91 -16 -47 -4 -85 -11 -85 -16 0 -5 -18 -9 -40 -9 -22 0 -40
-4 -40 -9 0 -5 -38 -12 -85 -16 -47 -4 -85 -11 -85 -16 0 -5 -11 -9 -25 -9
-14 0 -33 -6 -41 -12 -56 -45 -85 -79 -90 -107 -4 -17 -11 -34 -15 -37 -13 -8
-12 -4334 1 -4334 6 0 10 -11 10 -24 0 -14 7 -31 15 -40 8 -8 15 -19 15 -25 0
-6 3 -11 8 -11 4 0 20 -11 36 -25 16 -14 42 -25 58 -25 15 0 28 -4 28 -10 0
-5 11 -10 25 -10 14 0 25 -4 25 -9 0 -6 20 -13 45 -17 25 -3 45 -10 45 -15 0
-5 11 -9 25 -9 14 0 25 -4 25 -10 0 -5 10 -10 23 -10 12 0 35 -7 51 -15 15 -8
35 -15 42 -15 8 0 14 -4 14 -10 0 -5 9 -10 20 -10 11 0 53 -13 95 -30 42 -16
84 -30 95 -30 11 0 20 -4 20 -10 0 -5 11 -10 25 -10 14 0 25 -4 25 -9 0 -6 20
-13 45 -17 25 -3 45 -10 45 -15 0 -5 11 -9 24 -9 13 0 26 -5 28 -11 2 -7 41
-14 99 -17 79 -4 98 -2 111 12 9 9 19 16 22 16 14 0 46 36 46 52 0 10 5 18 10
18 6 0 10 7 10 15 0 8 5 15 10 15 7 0 10 813 10 2420 0 1607 -3 2420 -10 2420
-5 0 -10 9 -10 19 0 10 -7 21 -15 25 -8 3 -15 15 -15 26 0 13 -7 20 -20 20
-11 0 -23 7 -26 15 -4 8 -15 15 -25 15 -10 0 -19 5 -19 10 0 6 -32 10 -75 10
-43 0 -75 -4 -75 -10z m50 -2060 c0 -1732 -1 -1830 -17 -1839 -10 -5 -62 -12
-115 -16 -54 -4 -98 -11 -98 -16 0 -5 -19 -9 -43 -9 -24 0 -47 -4 -53 -9 -5
-6 -29 -11 -54 -13 l-45 -3 -3 -367 c-2 -311 -4 -368 -16 -368 -17 0 -200 67
-246 90 -9 4 -30 11 -48 15 l-32 7 0 2103 0 2103 33 6 c17 4 48 10 67 13 19 3
40 9 45 13 6 4 47 11 93 15 45 4 82 11 82 16 0 5 18 9 40 9 22 0 40 4 40 9 0
5 38 12 85 16 47 4 85 11 85 16 0 5 18 9 40 9 22 0 40 4 40 9 0 6 21 12 48 14
26 2 53 4 60 5 9 2 12 -370 12 -1828z m0 -2361 l0 -431 -37 7 c-21 3 -42 11
-47 16 -6 5 -18 9 -28 9 -10 0 -18 4 -18 9 0 5 -22 12 -50 16 -27 4 -50 11
-50 16 0 5 -9 9 -19 9 -11 0 -22 4 -26 9 -3 6 -26 13 -50 17 -45 6 -63 24 -25
24 20 0 20 7 20 340 l0 340 46 0 c25 0 43 4 40 8 -3 5 20 10 52 11 31 1 59 6
62 11 3 5 28 10 55 13 28 2 56 4 63 5 9 2 12 -90 12 -429z m-380 -289 c0 -5
-9 -10 -20 -10 -11 0 -20 5 -20 10 0 6 9 10 20 10 11 0 20 -4 20 -10z"/>
</g>
</svg>
