<svg version="1.0" xmlns="http://www.w3.org/2000/svg" width="920.000000ptpx" height="1001.000000ptpx" viewBox="0 0 920.000000 1001.000000" preserveAspectRatio="xMidYMid meet" transform="rotate(0) scale(1, 1)">
<metadata>
Created by potrace 1.16, written by Peter Selinger 2001-2019
</metadata>
<g transform="translate(0.000000,1001.000000) scale(0.100000,-0.100000)" fill="#ffffff" stroke="none">
<path d="M5375 9599 c-44 -5 -127 -13 -185 -19 -260 -27 -395 -65 -890 -252&#10;-102 -38 -232 -88 -290 -109 -58 -22 -127 -49 -154 -59 -27 -11 -53 -20 -57&#10;-20 -9 0 -310 -108 -359 -128 -14 -6 -110 -43 -215 -83 -104 -39 -271 -103&#10;-370 -141 -99 -38 -233 -86 -298 -108 -121 -42 -163 -57 -572 -217 -459 -179&#10;-566 -254 -632 -442 -40 -114 -30 -374 22 -541 8 -25 28 -124 45 -220 16 -96&#10;39 -212 50 -258 11 -45 29 -133 40 -195 28 -159 99 -382 151 -475 56 -98 180&#10;-225 265 -270 33 -17 117 -52 185 -77 68 -26 133 -50 144 -55 11 -5 38 -14 60&#10;-21 22 -6 49 -15 60 -20 11 -4 38 -13 60 -19 22 -6 49 -15 60 -20 40 -16 337&#10;-102 490 -141 420 -108 796 -181 1240 -240 44 -6 107 -15 141 -20 33 -5 92 -9&#10;130 -9 38 0 103 -5 144 -11 41 -5 216 -12 388 -14 293 -5 316 -4 369 15 31 11&#10;59 23 62 28 8 11 163 113 167 110 3 -4 23 -176 34 -293 l8 -90 -37 -41 c-20&#10;-23 -58 -68 -86 -100 -81 -96 -143 -162 -265 -287 -127 -130 -139 -147 -146&#10;-215 -5 -38 2 -68 31 -152 21 -58 46 -136 56 -175 10 -38 34 -112 52 -165 19&#10;-52 42 -121 52 -153 21 -76 70 -131 133 -151 26 -8 110 -27 187 -41 77 -15&#10;147 -28 156 -31 12 -3 18 -22 22 -77 3 -39 11 -133 16 -207 6 -74 13 -154 16&#10;-178 5 -41 3 -45 -53 -100 -31 -31 -78 -74 -104 -95 -39 -31 -187 -191 -216&#10;-232 -62 -89 -70 -104 -119 -235 -30 -78 -43 -260 -24 -335 17 -67 83 -203&#10;140 -286 78 -116 256 -302 421 -440 126 -106 333 -219 440 -239 87 -17 1470&#10;-13 1535 4 87 23 178 76 269 156 36 32 138 165 169 221 58 104 97 184 97 199&#10;0 9 4 20 9 26 14 13 67 161 75 209 4 22 20 87 36 145 71 268 100 754 65 1096&#10;-25 240 -44 370 -75 514 -16 74 -32 155 -35 180 -3 25 -24 119 -45 210 -22 91&#10;-44 192 -51 225 -6 33 -20 89 -29 125 -10 36 -25 97 -34 135 -8 39 -33 147&#10;-55 240 -22 94 -45 197 -50 230 -6 33 -20 103 -31 155 -32 150 -48 237 -65&#10;355 -8 61 -19 139 -25 175 -40 269 -44 322 -44 590 -1 226 2 291 17 365 30&#10;151 82 344 103 385 7 14 25 50 39 81 14 31 37 74 53 95 87 124 124 202 144&#10;304 15 80 22 1137 7 1247 -12 96 -38 168 -87 239 -99 145 -214 215 -407 247&#10;-110 19 -327 46 -455 58 -52 4 -133 13 -180 19 -47 5 -128 15 -180 20 -52 6&#10;-149 17 -215 25 -515 63 -1275 100 -1520 74z m580 -384 c139 -6 160 -8 265&#10;-19 30 -3 98 -8 150 -11 104 -5 156 -11 168 -19 4 -3 53 -7 107 -10 227 -13&#10;285 -19 285 -28 0 -6 6 -8 13 -5 24 9 317 -24 811 -93 153 -21 231 -50 270&#10;-103 21 -28 21 -35 21 -590 l0 -562 -28 -58 c-16 -31 -38 -64 -50 -73 -45 -32&#10;-163 -114 -177 -124 -8 -5 -33 -22 -55 -37 -22 -14 -128 -86 -235 -158 -107&#10;-72 -231 -157 -275 -188 -44 -31 -138 -95 -210 -143 -253 -169 -308 -207 -520&#10;-356 -38 -27 -153 -105 -255 -173 -102 -68 -223 -151 -270 -184 -80 -57 -247&#10;-170 -420 -284 -64 -42 -75 -47 -78 -31 -1 11 -6 53 -12 94 -12 95 -25 184&#10;-50 330 -10 63 -24 165 -30 225 -7 61 -25 182 -40 270 -16 88 -38 237 -50 330&#10;-35 275 -49 289 -335 335 -158 25 -194 31 -275 46 -89 16 -292 49 -395 65 -33&#10;4 -85 13 -115 19 -96 18 -413 70 -715 119 -213 35 -241 39 -480 82 -93 16&#10;-186 34 -205 39 -19 5 -78 16 -130 25 -52 9 -140 25 -195 36 -55 10 -127 23&#10;-160 29 -33 5 -104 20 -157 33 l-98 23 38 13 c20 7 62 23 92 36 30 13 82 33&#10;115 45 33 12 98 37 145 56 47 18 150 55 230 82 80 28 156 54 170 60 14 6 50&#10;19 80 30 106 39 425 161 550 210 85 33 164 62 335 122 77 28 172 61 210 76 39&#10;14 88 32 110 39 22 7 51 18 65 23 23 10 100 40 215 82 28 10 100 37 160 60 61&#10;23 135 51 165 62 30 11 64 24 75 28 77 32 301 84 480 111 89 13 397 27 490 23&#10;33 -2 123 -6 200 -9z m-4115 -1519 c271 -50 814 -149 910 -167 127 -23 298&#10;-54 375 -70 28 -5 122 -21 210 -34 88 -14 198 -32 245 -40 47 -8 202 -35 345&#10;-60 143 -25 296 -52 340 -60 44 -7 168 -28 275 -45 217 -34 352 -59 358 -65 7&#10;-6 57 -324 67 -420 4 -33 21 -154 40 -270 18 -115 45 -295 60 -400 14 -104 30&#10;-207 35 -227 l8 -38 -122 0 c-66 0 -191 5 -276 11 -137 9 -228 18 -520 49 -41&#10;5 -104 14 -140 20 -36 7 -90 16 -120 20 -30 5 -77 13 -105 19 -27 5 -86 17&#10;-130 25 -44 9 -129 27 -190 41 -60 14 -148 35 -195 46 -173 40 -358 87 -460&#10;118 -134 41 -563 185 -625 211 -11 4 -50 20 -88 35 -84 34 -112 56 -138 107&#10;-38 75 -48 108 -89 308 -5 25 -14 63 -21 85 -6 22 -23 114 -39 205 -15 91 -32&#10;183 -38 205 -9 35 -20 89 -63 310 -6 28 -12 60 -15 73 -5 26 1 27 106 8z&#10;m5848 -862 c-46 -307 -19 -889 62 -1324 11 -58 28 -162 40 -232 11 -70 33&#10;-185 50 -255 17 -71 41 -180 54 -243 33 -159 80 -364 116 -500 16 -64 36 -151&#10;44 -195 9 -44 31 -147 50 -230 42 -181 101 -535 117 -700 29 -297 -35 -800&#10;-137 -1077 -78 -210 -172 -362 -262 -419 l-46 -29 -660 0 c-448 0 -674 4 -701&#10;11 -119 33 -264 130 -416 280 -133 131 -232 264 -262 353 -44 130 8 247 183&#10;410 184 171 256 251 291 322 l34 69 -1 150 c-1 83 -9 197 -18 254 -20 128 -20&#10;120 2 115 193 -42 326 -66 367 -66 117 -1 271 75 421 209 79 70 196 255 227&#10;358 83 275 91 336 92 650 l0 260 -25 33 c-40 54 -83 70 -236 87 -76 9 -142 19&#10;-146 21 -8 5 -161 29 -373 59 -55 8 -158 24 -230 35 -71 11 -161 25 -200 31&#10;-38 6 -73 16 -77 22 -4 7 -8 30 -8 52 0 22 -5 69 -10 105 -12 77 -41 373 -38&#10;375 2 0 55 37 118 81 155 107 142 99 335 228 94 63 229 155 300 205 72 49 235&#10;161 363 248 264 178 238 161 392 268 121 85 202 136 207 131 2 -2 -7 -70 -19&#10;-152z m-1415 -1978 c161 -25 317 -48 347 -52 98 -12 99 -14 39 -70 -30 -27&#10;-91 -85 -136 -128 l-83 -79 -97 16 c-54 8 -141 22 -193 31 -52 8 -111 20 -130&#10;25 -30 8 -113 24 -247 48 -18 3 -33 10 -33 17 0 6 34 47 76 91 41 44 86 95&#10;101 113 14 17 34 32 45 32 10 0 150 -20 311 -44z m633 -519 c-18 -108 -69&#10;-217 -138 -292 -53 -58 -185 -132 -216 -120 -15 6 -149 31 -292 56 -30 5 -82&#10;16 -115 24 -33 8 -94 19 -135 25 -41 6 -88 15 -105 20 -16 5 -66 16 -110 24&#10;-129 24 -125 21 -151 114 l-22 82 22 -5 c11 -3 100 -18 196 -35 96 -16 265&#10;-46 375 -66 248 -46 310 -51 355 -31 19 8 105 78 190 155 85 77 156 139 157&#10;138 2 -1 -4 -42 -11 -89z"/>
</g>
</svg>