<?xml version="1.0" standalone="no"?>
<!DOCTYPE svg PUBLIC "-//W3C//DTD SVG 20010904//EN"
 "http://www.w3.org/TR/2001/REC-SVG-20010904/DTD/svg10.dtd">
<svg version="1.0" xmlns="http://www.w3.org/2000/svg"
 width="1280.000000pt" height="1279.000000pt" viewBox="0 0 1280.000000 1279.000000"
 preserveAspectRatio="xMidYMid meet">

<g transform="translate(0.000000,1279.000000) scale(0.100000,-0.100000)"
fill="#fff" stroke="none">
<path d="M3860 12600 c-280 -41 -530 -221 -658 -475 -38 -75 -81 -201 -87
-257 -9 -74 -13 -3283 -4 -3493 4 -110 12 -229 18 -265 6 -36 18 -112 26 -170
57 -396 216 -852 524 -1503 28 -60 88 -188 132 -285 45 -97 109 -238 144 -312
34 -74 95 -211 134 -305 40 -93 78 -183 85 -200 7 -16 28 -67 46 -112 55 -140
137 -245 250 -322 131 -89 208 -111 415 -120 l160 -6 5 -2115 c6 -2360 -1
-2147 75 -2275 65 -108 148 -178 276 -233 l64 -27 935 0 935 0 70 26 c127 47
230 136 290 250 69 131 65 -16 65 2295 l0 2091 123 6 c243 11 397 59 527 168
98 82 149 152 206 289 79 191 265 608 346 780 33 69 79 168 103 220 24 52 63
138 87 190 25 52 77 169 117 260 40 91 81 183 91 205 10 22 32 78 50 125 18
47 38 99 45 115 24 56 116 339 131 405 9 36 21 83 29 105 18 56 71 349 84 470
6 55 16 183 21 285 14 260 13 3287 -1 3405 -29 249 -141 450 -334 604 -101 81
-174 117 -330 164 l-70 22 -2535 1 c-1394 1 -2560 -2 -2590 -6z m5075 -380
c173 -28 333 -175 392 -360 23 -71 25 -366 14 -2085 -6 -1089 -13 -1596 -21
-1630 -6 -27 -19 -102 -29 -165 -44 -266 -131 -547 -296 -950 -37 -91 -70
-169 -74 -175 -4 -5 -16 -30 -25 -55 -27 -68 -161 -371 -218 -490 -28 -58 -82
-175 -120 -260 -39 -85 -81 -179 -94 -208 -13 -29 -24 -55 -24 -57 0 -2 -11
-28 -24 -57 -42 -92 -93 -211 -135 -320 -50 -128 -88 -175 -173 -214 l-63 -29
-1625 0 -1625 0 -59 30 c-80 41 -124 95 -165 201 -39 101 -238 564 -301 699
-23 50 -53 113 -65 140 -13 28 -80 171 -150 319 -151 320 -203 440 -283 646
-113 292 -192 576 -222 790 -6 47 -16 103 -21 126 -23 107 -28 489 -29 2063
l-1 1673 22 57 c58 147 215 282 361 310 62 13 4978 13 5053 1z m-1515 -9494
c0 -1822 -2 -2065 -15 -2076 -8 -7 -15 -23 -15 -35 0 -31 -46 -84 -87 -101
-26 -12 -186 -14 -877 -14 -934 0 -898 -2 -947 63 l-24 32 -3 2090 c-1 1150 0
2095 2 2100 2 7 337 9 985 7 l981 -2 0 -2064z"/>
<path d="M4219 11581 c-45 -11 -98 -54 -114 -94 -13 -33 -15 -224 -15 -1565 0
-987 4 -1567 10 -1638 13 -127 51 -330 87 -459 57 -205 102 -323 255 -665 67
-149 78 -168 117 -195 l43 -30 1791 -2 1792 -2 45 22 c50 24 80 63 109 140 10
29 40 96 66 151 149 316 246 625 292 931 15 97 17 289 20 1680 3 1163 1 1581
-8 1612 -13 49 -62 100 -110 113 -38 11 -4335 12 -4380 1z m4128 -1773 c-3
-1414 -4 -1424 -26 -1563 -24 -155 -84 -387 -131 -510 -50 -132 -153 -379
-163 -392 -7 -10 -344 -13 -1623 -13 l-1615 0 -39 86 c-22 47 -40 87 -40 90 0
2 -9 23 -19 47 -82 180 -155 406 -182 567 -38 225 -39 243 -39 1698 l0 1412
1941 0 1940 0 -4 -1422z"/>
<path d="M6295 10836 c-54 -20 -92 -65 -100 -118 -3 -24 -5 -181 -3 -349 l3
-306 27 -40 c35 -53 105 -87 168 -81 60 6 116 34 143 72 22 30 22 37 25 376
l3 346 -23 34 c-13 19 -37 42 -54 52 -43 25 -139 32 -189 14z"/>
<path d="M7307 10476 c-35 -16 -462 -440 -484 -480 -23 -45 -13 -123 23 -177
58 -85 144 -110 232 -65 63 33 455 426 477 478 50 122 -46 260 -179 257 -22 0
-54 -6 -69 -13z"/>
<path d="M5287 10402 c-55 -40 -79 -85 -80 -152 0 -30 6 -67 12 -80 17 -34
439 -458 473 -476 39 -21 121 -18 168 6 85 43 125 163 82 246 -20 37 -411 434
-462 468 -16 11 -45 16 -90 16 -54 -1 -71 -5 -103 -28z"/>
<path d="M6267 9785 c-169 -50 -310 -191 -362 -362 -22 -71 -19 -217 5 -295
61 -199 244 -351 451 -374 104 -12 275 31 349 88 155 119 230 262 230 439 0
142 -42 247 -140 353 -144 153 -339 209 -533 151z m232 -386 c76 -55 83 -159
16 -224 -76 -74 -182 -53 -235 48 -22 41 -23 48 -11 88 13 42 57 93 96 110 33
14 100 3 134 -22z"/>
<path d="M7178 9485 c-68 -36 -98 -87 -98 -167 0 -79 28 -133 85 -165 39 -22
46 -23 363 -23 367 0 376 2 429 82 58 87 26 224 -62 272 -38 20 -54 21 -355
23 l-315 3 -47 -25z"/>
<path d="M4940 9423 c-33 -13 -79 -56 -94 -88 -23 -49 -21 -142 5 -185 24 -39
52 -66 89 -82 28 -12 488 -20 615 -11 77 6 81 7 121 47 55 55 71 110 53 185
-14 58 -59 114 -106 132 -26 10 -657 11 -683 2z"/>
<path d="M6975 8881 c-48 -22 -69 -44 -90 -94 -19 -47 -19 -110 1 -150 9 -18
111 -128 227 -245 245 -246 268 -262 363 -242 56 12 102 48 131 105 20 37 19
124 -1 161 -25 49 -437 452 -478 469 -49 20 -104 19 -153 -4z"/>
<path d="M5760 8815 c-44 -20 -455 -428 -481 -477 -43 -84 -8 -191 82 -246 51
-31 134 -30 180 1 53 36 450 438 461 466 16 43 11 129 -9 168 -42 80 -155 123
-233 88z"/>
<path d="M6365 8601 c-48 -22 -69 -44 -90 -94 -12 -30 -15 -90 -15 -354 0
-288 2 -322 19 -359 59 -130 255 -143 334 -22 l27 42 0 322 c0 347 -3 368 -53
421 -60 64 -143 80 -222 44z"/>
<path d="M6280 6616 c-191 -46 -350 -188 -417 -375 -90 -246 8 -538 228 -684
97 -64 171 -89 284 -94 151 -8 269 23 372 99 107 78 172 162 220 283 24 64 27
82 27 200 0 121 -2 135 -29 200 -37 91 -67 137 -129 203 -108 115 -239 173
-401 178 -60 2 -122 -2 -155 -10z m236 -392 c80 -42 125 -157 95 -245 -27 -82
-139 -156 -216 -144 -63 11 -117 46 -152 99 -27 40 -33 58 -33 102 0 88 33
144 112 190 35 20 53 24 99 21 30 -1 73 -12 95 -23z"/>
</g>
</svg>
