<?xml version="1.0" standalone="no"?>
<!DOCTYPE svg PUBLIC "-//W3C//DTD SVG 20010904//EN"
 "http://www.w3.org/TR/2001/REC-SVG-20010904/DTD/svg10.dtd">
<svg version="1.0" xmlns="http://www.w3.org/2000/svg"
 width="1280.000000pt" height="1277.000000pt" viewBox="0 0 1280.000000 1277.000000"
 preserveAspectRatio="xMidYMid meet">

<g transform="translate(0.000000,1277.000000) scale(0.100000,-0.100000)"
fill="#fff" stroke="none">
<path d="M4075 12263 c-86 -10 -266 -68 -360 -116 -246 -126 -403 -323 -476
-597 -50 -187 -49 5 -49 -5180 0 -5199 -2 -4985 49 -5178 97 -366 376 -622
766 -700 72 -14 320 -16 2390 -20 1650 -2 2326 0 2365 8 283 56 443 134 594
286 145 146 225 315 263 557 17 106 18 367 18 5037 0 5156 1 5022 -40 5175
-24 88 -32 109 -68 187 -57 125 -123 212 -226 301 -85 73 -166 118 -336 187
-11 5 -42 14 -70 20 -174 42 -70 40 -2485 39 -1268 -1 -2318 -4 -2335 -6z
m4682 -549 c83 -19 161 -54 218 -98 128 -97 165 -212 165 -512 l0 -174 -612 0
c-1940 -1 -4759 -1 -4795 -1 l-43 1 0 148 c0 299 29 412 131 506 64 60 140
100 239 127 61 16 202 17 2347 18 2043 1 2289 -1 2350 -15z m381 -4941 l-3
-3618 -2722 -3 -2723 -2 0 3620 0 3620 2725 0 2725 0 -2 -3617z m0 -4735 c3
-624 -1 -671 -54 -785 -46 -96 -159 -179 -309 -225 -57 -17 -158 -18 -2360
-18 -2202 0 -2303 1 -2360 18 -196 60 -303 160 -346 323 -11 44 -27 1224 -16
1252 3 9 584 12 2723 10 l2719 -2 3 -573z"/>
<path d="M5213 11436 c-24 -21 -28 -32 -31 -93 -4 -67 -3 -72 28 -106 l32 -37
1172 0 c1094 0 1172 2 1192 18 33 27 44 56 44 120 0 52 -4 64 -29 91 l-29 31
-1175 0 -1176 0 -28 -24z"/>
<path d="M6300 2331 c-93 -24 -163 -66 -230 -138 -160 -171 -195 -423 -88
-638 81 -162 228 -264 408 -281 71 -7 195 25 268 69 153 92 251 278 252 477 0
244 -172 468 -397 515 -86 18 -131 18 -213 -4z"/>
</g>
</svg>
